<?xml version="1.0" standalone="no"?>
<!DOCTYPE svg PUBLIC "-//W3C//DTD SVG 20010904//EN"
 "http://www.w3.org/TR/2001/REC-SVG-20010904/DTD/svg10.dtd">
<svg version="1.0" xmlns="http://www.w3.org/2000/svg"
 width="3627.000000pt" height="2100.000000pt" viewBox="0 0 3627.000000 2100.000000"
 preserveAspectRatio="xMidYMid meet">

<g transform="translate(0.000000,2100.000000) scale(0.100000,-0.100000)"
fill="#000000" stroke="none">
<path d="M11590 16293 c-19 -1 -93 -8 -165 -13 -1635 -132 -2977 -1078 -3590
-2531 -465 -1102 -472 -2420 -18 -3769 586 -1744 1931 -3512 3898 -5123 l130
-106 32 102 c18 56 29 105 25 108 -4 3 -99 82 -212 176 -869 720 -1678 1550
-2287 2343 -836 1091 -1390 2230 -1614 3319 -125 608 -149 1231 -68 1786 130
891 512 1681 1107 2289 604 618 1390 1020 2272 1165 306 50 387 56 770 55 379
0 503 -9 803 -60 689 -115 1369 -362 2017 -730 74 -42 140 -78 146 -81 7 -2
83 36 170 85 771 434 1530 686 2339 774 187 20 812 17 990 -5 915 -115 1667
-447 2314 -1023 516 -459 918 -1073 1141 -1741 111 -334 168 -599 217 -1004
25 -207 25 -772 0 -989 -24 -211 -34 -282 -63 -445 -208 -1171 -789 -2363
-1709 -3510 -162 -201 -473 -563 -486 -564 -6 -1 -18 136 -39 429 -5 74 -12
174 -15 223 l-7 87 72 0 73 0 -6 28 c-3 15 -20 132 -38 260 -31 219 -34 233
-55 238 -20 5 -25 19 -43 117 -52 279 -106 739 -131 1117 -37 545 -27 1671 19
2295 6 72 13 171 16 220 3 50 19 286 36 525 21 299 30 486 27 598 l-3 163 68
-3 67 -3 0 158 0 157 -70 0 -70 0 0 185 0 185 70 0 71 0 -3 117 -3 118 -90 0
-90 0 -3 333 -2 333 -48 -7 c-26 -3 -50 -8 -54 -11 -5 -2 -8 -148 -8 -324 l0
-319 -104 0 c-85 0 -105 -3 -110 -16 -3 -9 -6 -63 -6 -120 l0 -104 60 0 60 0
0 -180 0 -180 -69 0 c-39 0 -72 -3 -74 -7 -3 -5 -7 -73 -8 -153 l-4 -145 52
-8 53 -9 -5 -36 c-3 -20 -14 -125 -25 -232 -145 -1448 -356 -2822 -595 -3860
-41 -179 -151 -613 -187 -740 -31 -108 -35 -115 -60 -118 -26 -3 -30 -11 -83
-180 -31 -97 -63 -198 -71 -224 -9 -26 -14 -58 -12 -70 3 -21 9 -23 71 -26 37
-2 67 -7 67 -13 0 -22 -139 -448 -232 -709 -76 -214 -216 -570 -272 -694 l-36
-78 -81 4 -82 3 -43 -67 c-76 -118 -272 -445 -304 -507 -18 -33 -29 -65 -25
-71 3 -5 31 -10 61 -10 30 0 54 -3 54 -7 0 -11 -138 -270 -258 -483 -205 -364
-471 -791 -520 -834 -27 -24 -27 -31 -1 -68 12 -16 18 -33 13 -38 -57 -54
-228 -187 -264 -205 -62 -31 -156 -55 -219 -55 -38 0 -56 -5 -71 -20 -24 -24
-25 -38 -4 -68 12 -18 25 -22 69 -22 73 0 188 25 255 56 60 27 116 68 248 178
48 40 143 112 211 160 l124 88 -6 -39 c-28 -174 -16 -285 34 -328 60 -50 133
-25 295 101 96 74 150 108 157 97 2 -4 12 -31 21 -60 37 -113 110 -172 212
-173 165 0 354 135 902 643 105 98 192 177 192 175 0 -3 -32 -58 -72 -124
-101 -167 -229 -423 -263 -524 -35 -107 -45 -228 -21 -283 11 -27 26 -42 50
-52 49 -21 65 -19 133 15 90 45 174 117 496 429 53 51 97 87 97 79 0 -7 -4
-18 -9 -23 -19 -21 -83 -178 -101 -249 -23 -91 -15 -127 31 -147 26 -10 43 -8
129 16 106 30 160 30 206 0 35 -23 44 -53 33 -111 -14 -70 -3 -127 31 -164 25
-26 35 -30 82 -30 29 0 71 5 93 10 52 13 160 1 535 -57 274 -42 310 -45 505
-47 202 -1 496 9 600 20 48 6 53 4 108 -40 114 -89 220 -136 411 -181 182 -42
284 -50 711 -50 406 0 706 8 1005 25 408 25 615 42 627 52 7 6 13 26 13 44 0
55 -16 58 -261 40 -118 -8 -266 -18 -329 -21 -63 -3 -137 -8 -165 -10 -27 -2
-223 -9 -435 -16 -438 -13 -839 -7 -994 16 -221 33 -416 105 -518 193 -83 70
-53 68 -483 42 -273 -16 -462 -6 -755 40 -146 23 -292 46 -326 51 -88 12 -240
15 -303 5 l-54 -8 9 48 c17 99 8 156 -32 204 -63 75 -187 99 -312 61 -87 -26
-90 -26 -64 2 12 12 28 40 36 62 7 22 44 103 81 180 81 167 92 223 51 250 -20
14 -32 15 -56 7 -63 -23 -152 -94 -330 -266 -282 -273 -392 -366 -433 -366
-19 0 -20 4 -14 70 11 130 108 335 344 728 177 293 193 331 155 365 -49 45
-75 26 -442 -313 -598 -551 -767 -680 -896 -680 -49 0 -87 40 -109 116 -28 97
-42 123 -70 130 -65 16 -110 -7 -334 -172 -40 -30 -79 -54 -87 -54 -7 0 -17
12 -20 26 -7 29 10 178 32 275 l15 67 97 68 c297 210 823 620 1121 872 608
516 1247 1151 1712 1702 1166 1381 1886 2912 2034 4320 9 85 18 171 21 190 14
89 13 719 -1 860 -64 655 -203 1170 -450 1675 -218 444 -458 779 -809 1131
-355 354 -664 576 -1101 789 -493 241 -967 371 -1570 429 -188 19 -708 14
-900 -8 -222 -25 -290 -35 -465 -67 -609 -112 -1264 -346 -1872 -669 l-172
-92 -265 135 c-146 74 -322 160 -391 190 -779 342 -1621 528 -2375 524 -104 0
-206 -2 -225 -4z m7998 -2340 l142 -6 0 -53 0 -53 -205 2 -205 2 6 45 c3 25 7
51 9 58 5 14 46 15 253 5z m2 -353 l0 -180 -47 0 c-93 0 -93 0 -93 104 0 50 3
128 7 174 l6 82 63 0 64 0 0 -180z m140 -345 l0 -95 -92 0 c-51 0 -151 3 -222
7 l-128 6 6 86 c4 47 9 88 11 91 2 3 98 4 214 2 l211 -3 0 -94z m-294 -222
c-3 -38 -6 -85 -6 -105 0 -28 -8 -46 -31 -70 -23 -25 -29 -28 -25 -13 2 11 7
52 10 90 14 153 16 165 38 165 19 0 20 -4 14 -67z m134 58 c0 -5 -7 -14 -15
-21 -12 -10 -15 -10 -15 2 0 8 3 18 7 21 9 10 23 9 23 -2z m26 -107 c-4 -13
-13 -24 -22 -24 -26 0 -27 28 -2 62 22 32 23 32 26 9 2 -12 1 -34 -2 -47z
m-51 -63 c3 -5 1 -12 -5 -16 -5 -3 -10 1 -10 9 0 18 6 21 15 7z m53 -69 c5
-30 -52 -107 -65 -90 -22 29 -21 37 8 77 32 45 52 49 57 13z m-181 -74 c-3
-13 -9 -61 -12 -108 -9 -114 -12 -123 -35 -80 -23 45 -17 131 14 177 24 38 41
43 33 11z m183 -52 c0 -17 -14 -29 -23 -20 -8 8 3 34 14 34 5 0 9 -6 9 -14z
m-33 -68 c26 -24 30 -72 9 -100 -18 -25 -29 -23 -54 12 -27 35 -28 54 -4 85
21 30 21 30 49 3z m-203 -135 c4 -9 0 -23 -9 -32 -13 -14 -15 -12 -15 17 0 34
14 43 24 15z m149 -47 c-10 -12 -19 -23 -20 -25 -2 -2 -3 15 -3 39 0 43 0 43
20 25 19 -17 19 -19 3 -39z m59 -27 c5 -15 -10 -211 -17 -217 -3 -3 -21 10
-40 28 -50 48 -49 95 3 155 39 46 48 52 54 34z m-190 -61 c-4 -51 -10 -70 -34
-101 -17 -21 -32 -36 -34 -34 -2 2 0 33 4 69 6 46 15 74 33 96 13 17 27 31 30
31 3 1 3 -27 1 -61z m-18 -227 c-4 -39 -10 -71 -14 -71 -4 0 -15 18 -25 39
l-17 39 28 36 c16 19 30 34 31 32 2 -2 0 -35 -3 -75z m132 -6 c-16 -20 -30
-34 -33 -31 -3 3 -2 31 2 62 l7 57 26 -26 25 -26 -27 -36z m51 -90 c-3 -46
-11 -94 -17 -106 -12 -21 -12 -21 -41 7 -46 44 -46 58 8 124 26 32 50 59 52
59 2 1 1 -37 -2 -84z m-223 -16 l27 -40 -37 -50 c-20 -27 -38 -49 -40 -47 -1
2 1 35 6 73 5 39 9 78 10 88 0 25 4 22 34 -24z m152 -134 c3 -8 -4 -26 -15
-41 l-21 -27 0 35 c0 19 3 38 7 41 11 11 23 8 29 -8z m-141 -78 c-6 -63 -12
-81 -36 -109 -24 -28 -30 -31 -39 -18 -21 29 -2 108 38 159 20 27 39 47 40 45
2 -1 1 -36 -3 -77z m190 -85 c-9 -129 -14 -136 -60 -92 -50 49 -49 90 6 159
27 34 45 49 52 42 6 -6 7 -47 2 -109z m-205 -99 c0 -19 -3 -24 -10 -17 -6 6
-8 18 -4 27 9 24 14 21 14 -10z m124 -99 c-15 -19 -28 -34 -30 -34 -2 0 -2 15
0 33 2 17 4 46 5 62 l2 30 24 -28 25 -28 -26 -35z m-151 27 c16 -28 16 -29
-16 -70 -29 -38 -33 -40 -44 -24 -18 24 -16 53 7 91 24 39 31 40 53 3z m215
-122 c-7 -116 -16 -126 -70 -72 l-41 41 49 61 c27 34 53 61 58 61 5 0 6 -41 4
-91z m-202 -5 c-3 -9 -6 -27 -6 -42 0 -25 -1 -25 -17 -9 -15 14 -15 20 -3 42
15 27 36 35 26 9z m-40 -104 l27 -40 -34 -45 c-19 -24 -37 -45 -41 -45 -16 0
-30 45 -25 80 4 32 32 90 43 90 2 0 16 -18 30 -40z m162 -15 c12 -14 22 -27
22 -29 0 -2 -13 -20 -30 -41 l-30 -38 0 67 c0 36 4 66 8 66 5 0 18 -11 30 -25z
m66 -178 c-9 -128 -13 -132 -69 -77 -25 24 -45 50 -45 57 0 22 101 136 112
125 6 -6 7 -47 2 -105z m-216 -14 l-3 -27 -18 27 c-17 26 -17 28 0 51 l18 24
3 -24 c2 -13 2 -36 0 -51z m-35 -52 c18 -27 27 -52 27 -79 0 -43 -17 -102 -30
-102 -15 0 -80 113 -80 138 0 21 37 80 50 81 3 0 17 -17 33 -38z m173 -67 l23
-29 -36 -48 c-20 -26 -37 -46 -39 -45 -8 9 10 158 19 155 6 -2 20 -16 33 -33z
m-233 -118 l26 -39 -42 -53 c-23 -30 -44 -54 -47 -54 -3 0 1 45 9 100 9 55 18
96 22 92 3 -4 18 -25 32 -46z m298 -37 c-4 -114 -17 -128 -71 -73 l-40 40 47
62 c26 34 52 61 58 59 5 -2 8 -39 6 -88z m-236 -151 c-5 -81 -11 -110 -28
-135 -12 -18 -25 -33 -29 -33 -9 0 -68 104 -68 119 0 20 103 151 118 151 12 0
13 -17 7 -102z m175 0 c0 -5 -17 -31 -37 -59 -38 -50 -38 -50 -41 -22 -2 15
-1 57 3 92 l7 63 34 -33 c19 -18 34 -37 34 -41z m60 -159 c0 -54 -4 -100 -8
-103 -8 -5 -102 96 -102 110 0 4 19 31 41 61 57 74 69 62 69 -68z m-353 -1
l31 -47 -37 -50 c-41 -54 -51 -56 -51 -8 0 31 20 161 24 155 2 -2 16 -24 33
-50z m292 -193 c-113 -155 -121 -145 -92 114 l6 55 57 -64 58 -65 -29 -40z
m-205 -20 c-4 -44 -10 -84 -15 -89 -9 -10 -49 33 -75 81 l-18 31 39 51 40 52
17 -23 c15 -19 17 -36 12 -103z m256 -117 l-1 -123 -55 58 -55 59 37 46 c52
65 67 82 71 82 1 0 3 -55 3 -122z m-318 -31 c-4 -7 -26 -34 -47 -60 l-39 -49
-23 44 c-26 51 -23 112 9 165 l20 33 44 -61 c29 -39 42 -65 36 -72z m277 -122
c1 -5 -20 -36 -45 -68 l-47 -58 -24 23 c-24 22 -25 27 -18 103 4 51 12 86 22
98 15 16 19 14 64 -35 27 -29 48 -57 48 -63z m-234 13 c-9 -120 -12 -137 -26
-154 -11 -13 -17 -7 -46 43 -18 32 -31 63 -29 70 7 19 90 123 99 123 4 0 5
-37 2 -82z m-181 -72 c-27 -36 -33 -32 -23 17 15 69 21 76 32 40 7 -25 6 -36
-9 -57z m465 -146 l0 -85 -54 60 c-30 33 -55 64 -55 68 0 5 21 36 48 69 l47
61 7 -44 c3 -24 7 -82 7 -129z m-383 71 l30 -58 -53 -68 c-29 -38 -55 -71 -58
-73 -6 -6 -55 103 -55 122 0 15 88 136 98 136 4 0 21 -27 38 -59z m204 -31 c0
-11 -4 -20 -10 -20 -5 0 -10 9 -10 20 0 11 5 20 10 20 6 0 10 -9 10 -20z m168
-181 c2 -5 -25 -45 -60 -89 l-63 -81 -43 47 c-42 46 -43 49 -38 98 3 28 5 60
6 72 0 11 14 39 32 62 l32 42 66 -72 c36 -39 66 -75 68 -79z m-304 -3 c-5 -69
-11 -99 -28 -123 -11 -18 -24 -33 -28 -33 -10 0 -69 113 -66 127 2 7 26 42 53
77 66 84 77 76 69 -48z m-194 4 c11 -27 10 -33 -19 -72 -17 -23 -31 -35 -31
-27 0 31 23 129 30 129 4 0 13 -13 20 -30z m69 -134 c17 -29 31 -59 31 -65 0
-13 -101 -151 -111 -151 -8 0 -59 113 -59 131 0 13 95 139 105 139 2 0 17 -24
34 -54z m444 -13 c4 -38 7 -95 7 -128 l0 -60 -55 60 c-30 33 -54 65 -55 71 0
11 81 123 91 124 3 0 9 -30 12 -67z m-173 -57 c0 -6 -16 -29 -36 -51 -20 -22
-33 -32 -30 -22 3 10 6 46 6 80 l0 61 30 -29 c17 -16 30 -34 30 -39z m-160 -8
c0 -16 -3 -19 -11 -11 -6 6 -8 16 -5 22 11 17 16 13 16 -11z m310 -158 c0 -3
-28 -40 -62 -83 l-61 -79 -54 54 c-67 65 -66 81 9 176 l52 65 58 -64 c32 -35
58 -66 58 -69z m-337 88 c15 -29 16 -46 8 -135 -6 -72 -14 -109 -28 -127 -10
-14 -21 -26 -25 -26 -4 0 -28 38 -53 85 l-47 85 57 75 c32 41 61 75 64 75 4 0
14 -15 24 -32z m-219 -65 l24 -48 -41 -52 c-23 -29 -43 -51 -44 -49 -4 4 30
196 34 196 2 0 13 -21 27 -47z m600 -189 c5 -74 4 -130 -1 -135 -6 -6 -35 14
-73 49 l-64 59 59 76 c33 42 63 76 66 77 4 0 10 -57 13 -126z m-506 13 c23
-46 42 -87 42 -91 0 -8 -99 -136 -105 -136 -5 0 -85 167 -85 179 0 12 90 129
100 130 3 1 24 -37 48 -82z m279 -8 l32 -32 -46 -59 c-25 -32 -48 -57 -49 -55
-9 8 10 177 20 177 5 0 25 -14 43 -31z m-170 -91 c-3 -8 -6 -5 -6 6 -1 11 2
17 5 13 3 -3 4 -12 1 -19z m302 -41 l61 -58 -52 -69 -52 -70 -67 66 -67 67 51
63 c29 35 55 63 59 61 3 -1 34 -28 67 -60z m-510 -125 c1 -14 -60 -101 -70
-102 -10 0 -49 96 -49 120 0 12 7 53 16 93 l17 71 43 -84 c24 -47 43 -91 43
-98z m191 97 c24 -57 0 -279 -31 -279 -13 0 -100 170 -93 182 14 25 99 128
105 128 4 0 12 -14 19 -31z m441 -148 c9 -66 8 -75 -11 -106 l-22 -35 -49 42
c-27 22 -49 43 -49 46 0 16 105 141 113 133 4 -4 13 -41 18 -80z m-259 12 c32
-32 58 -62 58 -68 0 -5 -17 -29 -38 -53 l-37 -43 -33 33 c-32 34 -32 34 -26
111 4 42 10 77 13 77 3 0 31 -26 63 -57z m-294 -92 c23 -44 42 -85 42 -91 0
-13 -69 -100 -79 -100 -3 0 -26 38 -50 84 l-44 85 39 50 c21 28 41 51 44 51 3
0 24 -36 48 -79z m-192 2 c4 -15 -5 -36 -30 -69 -41 -54 -42 -52 -19 52 15 69
18 74 30 58 8 -11 16 -29 19 -41z m633 -55 c22 -21 41 -41 41 -44 0 -13 -64
-94 -75 -94 -6 0 -30 20 -54 44 l-44 44 38 47 c21 25 41 44 45 43 4 -2 26 -20
49 -40z m-554 -94 l46 -86 -24 -31 c-14 -18 -42 -52 -64 -76 l-39 -44 -42 77
c-23 43 -42 84 -42 92 0 11 108 154 116 154 1 0 23 -39 49 -86z m347 20 c-23
-32 -32 -30 -32 9 0 43 9 51 31 31 17 -15 17 -18 1 -40z m334 29 c-10 -10 -19
5 -10 18 6 11 8 11 12 0 2 -7 1 -15 -2 -18z m-14 -57 c35 -34 47 -113 22 -150
-16 -26 -17 -26 -38 -9 -50 41 -86 78 -86 86 0 11 62 96 70 97 3 0 17 -11 32
-24z m-465 -8 c8 -20 1 -200 -10 -233 -4 -10 -87 136 -87 152 0 12 70 103 80
103 4 0 11 -10 17 -22z m248 -26 l46 -44 -27 -35 -28 -36 -43 49 c-48 55 -49
60 -27 92 19 28 20 28 79 -26z m-45 -147 c0 -12 -99 -135 -109 -135 -8 0 5
206 14 229 5 12 17 5 51 -34 24 -27 44 -55 44 -60z m184 16 c48 -48 49 -51 33
-73 -49 -69 -44 -69 -98 -9 -27 30 -49 59 -49 63 0 15 43 68 55 68 6 0 33 -22
59 -49z m-734 -38 l32 -62 -30 -39 c-50 -62 -58 -67 -76 -40 -9 12 -16 31 -16
42 0 32 43 177 50 169 4 -4 22 -36 40 -70z m264 -9 c42 -75 47 -89 36 -108
-20 -37 -107 -129 -116 -123 -5 3 -29 43 -53 89 l-45 85 60 70 c32 40 62 72
65 72 3 1 27 -38 53 -85z m601 6 c3 -5 1 -10 -4 -10 -6 0 -11 5 -11 10 0 6 2
10 4 10 3 0 8 -4 11 -10z m-205 -101 l29 -36 -55 -66 c-31 -37 -57 -67 -60
-67 -5 0 -74 76 -92 101 -12 17 -7 27 44 89 l58 70 23 -27 c13 -16 36 -44 53
-64z m235 -95 c9 -58 15 -108 12 -110 -4 -4 -136 139 -151 164 -5 8 6 30 29
58 l37 45 28 -26 c23 -22 30 -42 45 -131z m-789 6 c24 -41 43 -82 43 -91 1
-22 -51 -69 -77 -69 -17 0 -33 16 -62 63 -22 34 -40 68 -40 75 0 17 72 102 84
99 5 -2 28 -36 52 -77z m215 -67 c-3 -50 -9 -94 -13 -98 -15 -15 -65 7 -82 36
l-18 30 57 65 c32 36 58 64 60 62 1 -2 -1 -44 -4 -95z m-435 28 c-15 -14 -25
-19 -22 -11 26 74 27 76 38 56 8 -15 5 -23 -16 -45z m984 -112 l30 -37 -122 5
c-118 5 -124 6 -145 32 -12 14 -22 30 -23 34 0 5 24 38 53 73 l52 65 63 -68
c34 -37 76 -84 92 -104z m-354 64 c24 -30 25 -33 9 -57 -14 -21 -25 -26 -61
-26 l-44 0 0 59 c0 32 3 73 7 91 l6 33 29 -34 c16 -19 40 -48 54 -66z m-550
-21 l25 -42 -72 0 c-40 0 -70 2 -68 4 2 3 20 23 39 45 18 23 38 40 42 39 5 -2
20 -22 34 -46z m224 -42 c0 -5 -7 -10 -16 -10 -8 0 -12 5 -9 10 3 6 10 10 16
10 5 0 9 -4 9 -10z m400 -20 c0 -5 -4 -10 -9 -10 -6 0 -13 5 -16 10 -3 6 1 10
9 10 9 0 16 -4 16 -10z m-466 -50 c132 -5 365 -14 516 -20 151 -6 290 -13 308
-17 38 -6 34 7 63 -213 12 -91 22 -169 23 -174 1 -10 -91 -9 -344 4 -102 5
-282 14 -400 20 -473 22 -635 32 -642 38 -5 6 101 336 117 362 8 12 57 12 359
0z m-214 -448 c0 -5 -24 -35 -54 -68 l-54 -59 -16 37 c-10 22 -13 49 -10 67 6
31 7 31 70 31 35 0 64 -4 64 -8z m337 -16 c14 -14 -14 -59 -84 -135 l-78 -84
-53 96 c-30 53 -56 106 -59 118 l-6 22 138 -6 c76 -3 140 -8 142 -11z m300
-86 l71 -75 -15 -30 c-8 -17 -22 -41 -30 -54 l-15 -23 -88 87 c-73 72 -89 94
-94 127 -4 21 -4 42 -2 46 3 4 26 5 53 2 45 -5 54 -11 120 -80z m96 70 l58 0
-27 -50 c-15 -27 -30 -50 -34 -50 -9 0 -100 97 -100 106 0 3 10 4 23 0 12 -3
48 -6 80 -6z m259 -19 c6 -5 -91 -210 -109 -231 -2 -2 -29 22 -61 53 l-57 57
29 58 c16 31 33 62 37 67 9 12 149 8 161 -4z m-907 -107 l57 -107 -53 -53
c-29 -30 -58 -54 -64 -54 -11 0 -105 181 -105 201 0 12 91 118 102 118 3 1 32
-47 63 -105z m-235 15 c9 -16 8 -25 -6 -40 -26 -29 -32 -23 -21 21 6 22 12 40
14 40 1 0 7 -9 13 -21z m1165 -173 l6 -100 -43 39 c-24 21 -46 44 -50 51 -5 7
8 46 30 91 35 75 37 77 43 48 4 -16 10 -75 14 -129z m-736 50 c-12 -47 -24
-86 -28 -86 -3 0 -17 19 -29 41 l-24 41 48 49 c26 27 49 47 51 45 2 -2 -6 -42
-18 -90z m273 17 c38 -37 68 -72 68 -77 0 -10 -55 -101 -78 -129 -28 -32 -46
14 -57 151 -6 67 -8 122 -5 122 2 0 35 -30 72 -67z m-615 -63 l52 -99 -62 -56
c-34 -30 -67 -55 -73 -55 -5 0 -19 19 -29 43 -10 23 -27 62 -38 85 -11 27 -16
53 -12 69 6 25 82 110 100 112 6 0 33 -44 62 -99z m900 -76 l-28 -57 -64 63
-64 63 16 31 c9 17 23 41 31 54 l15 24 61 -61 60 -61 -27 -56z m-629 13 c33
-55 33 -56 17 -89 -16 -34 -80 -108 -93 -108 -4 0 -25 34 -47 75 l-40 75 55
55 c30 30 59 54 65 52 5 -2 25 -29 43 -60z m180 6 c8 -199 56 -687 87 -883 31
-197 33 -179 -24 -234 l-50 -49 -180 9 c-99 5 -182 12 -185 15 -3 3 20 77 50
165 67 192 129 409 220 767 37 147 70 267 74 267 3 0 7 -26 8 -57z m339 -55
l60 -63 -39 -84 -39 -84 -70 69 c-38 37 -69 73 -69 78 0 14 80 146 88 146 4 0
35 -28 69 -62z m233 7 l54 -55 -27 -55 c-15 -30 -30 -55 -35 -55 -4 0 -31 24
-60 53 l-53 54 27 56 c16 32 31 57 34 57 3 0 30 -25 60 -55z m-1180 -66 c17
-33 30 -66 28 -73 -4 -16 -123 -116 -139 -116 -6 0 -9 6 -7 13 3 6 22 63 43
125 21 61 40 112 41 112 2 0 18 -27 34 -61z m281 -55 l41 -76 -63 -64 c-35
-35 -66 -64 -70 -64 -3 0 -26 38 -50 85 l-44 85 65 59 c36 32 68 57 72 55 4
-3 26 -39 49 -80z m813 -31 c28 -26 53 -51 54 -56 6 -13 -61 -157 -72 -157 -6
0 -34 23 -62 51 l-52 51 37 79 c20 43 38 78 40 79 2 0 27 -21 55 -47z m-257
-55 l71 -73 -36 -77 c-20 -43 -41 -78 -47 -78 -6 0 -27 17 -47 38 -34 35 -37
42 -43 125 -6 65 -4 95 5 113 8 13 16 24 19 24 4 0 39 -33 78 -72z m422 -13
l1 -30 -26 26 c-25 25 -25 26 -7 57 l18 32 6 -28 c4 -15 7 -40 8 -57z m-845
28 c-10 -41 -16 -47 -26 -29 -7 13 -5 23 8 37 23 25 26 24 18 -8z m-297 -98
l36 -69 -69 -63 c-38 -34 -74 -63 -79 -63 -10 0 -96 160 -94 177 0 4 32 34 72
66 82 68 74 71 134 -48z m247 20 c21 -32 21 -40 -10 -148 -37 -132 -41 -134
-97 -35 l-46 83 62 63 c34 34 64 62 68 62 4 0 14 -11 23 -25z m905 -70 c1 -16
3 -46 6 -65 4 -29 0 -41 -25 -70 l-30 -34 -54 53 -54 53 40 80 39 80 38 -34
c29 -24 40 -41 40 -63z m-262 -27 l50 -53 -38 -83 -39 -83 -59 52 -59 52 25
55 c36 81 53 112 61 112 4 0 31 -24 59 -52z m-1087 -68 c24 -49 42 -91 39 -93
-159 -128 -150 -122 -166 -102 -27 38 -27 67 2 150 36 102 52 135 68 135 7 0
33 -40 57 -90z m308 -55 l46 -79 -73 -68 c-40 -37 -76 -68 -80 -68 -4 0 -29
39 -55 86 l-47 87 38 31 c21 17 54 45 73 63 19 18 39 31 44 30 5 -2 29 -38 54
-82z m572 -2 c0 -8 -8 -28 -17 -46 l-17 -32 -7 45 c-4 25 -8 56 -8 69 l-1 24
25 -23 c14 -13 25 -30 25 -37z m348 -6 l42 -43 -65 -64 -65 -64 -26 25 -26 26
41 82 c23 44 45 81 49 81 4 0 27 -19 50 -43z m-211 -109 l21 -23 -69 -144
c-38 -79 -72 -142 -75 -139 -8 9 -34 178 -34 226 0 28 11 64 30 103 l31 60 37
-29 c20 -17 47 -41 59 -54z m-901 -45 l47 -87 -44 -39 c-75 -67 -109 -91 -119
-81 -14 14 -90 152 -90 163 0 10 139 130 152 131 3 0 28 -39 54 -87z m248 -10
c-8 -27 -17 -59 -21 -73 -6 -26 -60 -100 -72 -100 -4 0 -17 19 -28 43 l-21 42
71 67 c40 37 75 67 79 68 4 0 0 -21 -8 -47z m-547 -45 c-18 -14 -33 -25 -35
-23 -2 2 7 27 19 56 l23 53 12 -30 c11 -27 10 -31 -19 -56z m1243 -53 c-29
-30 -56 -53 -58 -51 -2 2 13 37 33 76 l37 73 21 -22 21 -21 -54 -55z m-1137
-54 l47 -90 -102 -80 c-101 -79 -104 -81 -160 -81 -31 0 -59 3 -61 8 -2 4 18
59 46 122 44 104 55 120 106 162 31 26 61 47 66 47 6 1 31 -39 58 -88z m292
-16 l27 -45 -68 -75 c-37 -41 -71 -75 -75 -75 -10 0 -72 111 -65 117 25 25
143 122 148 123 4 0 19 -20 33 -45z m52 -123 c-3 -16 -17 -54 -31 -85 -21 -48
-29 -57 -51 -57 -15 0 -35 5 -47 11 -19 10 -16 15 49 84 37 40 72 73 77 74 5
0 6 -12 3 -27z m-237 -47 c46 -80 36 -89 -94 -80 -56 4 -102 8 -103 9 -3 3
151 126 159 126 3 0 21 -25 38 -55z m-434 -123 c7 -4 47 -83 89 -177 43 -93
93 -201 112 -238 62 -124 63 -117 -13 -117 l-65 0 -38 83 c-21 45 -78 165
-125 266 -47 102 -86 186 -86 188 0 6 115 2 126 -5z m225 -18 c3 -2 28 -52 54
-111 27 -59 79 -173 117 -252 43 -89 65 -148 59 -154 -5 -5 -40 -6 -82 -2
l-74 7 -25 56 c-13 32 -54 120 -91 197 -91 191 -119 254 -119 266 0 8 24 9 78
4 42 -4 80 -9 83 -11z m-293 -204 c49 -107 101 -219 116 -249 14 -30 26 -55
26 -56 0 -1 -26 -1 -57 0 l-58 2 -97 194 c-53 107 -97 200 -98 207 0 20 63
113 71 104 4 -4 48 -95 97 -202z m442 200 l56 0 97 -207 98 -208 -52 -48 c-29
-26 -56 -44 -60 -40 -6 7 -137 288 -216 462 l-24 54 23 -7 c13 -3 48 -6 78 -6z
m350 -140 l64 -129 -59 -55 c-33 -30 -63 -55 -67 -56 -8 0 -19 22 -116 235
-33 72 -58 132 -57 135 2 3 41 4 87 2 l84 -3 64 -129z m175 61 l28 -60 -49
-45 c-27 -25 -51 -45 -54 -46 -7 0 -100 187 -100 200 0 6 32 10 73 10 l73 0
29 -59z m134 42 c-1 -14 -68 -65 -78 -59 -5 3 -14 19 -19 36 l-11 30 55 0 c29
0 54 -3 53 -7z m-1130 -456 c1 -8 -264 -8 -351 1 l-46 4 31 52 c18 28 68 106
112 174 l80 121 87 -172 c48 -95 87 -176 87 -180z m-229 -129 c13 -35 25 -68
27 -75 4 -10 -89 -123 -108 -131 -4 -2 -16 21 -27 50 l-20 53 35 70 c38 75 51
95 63 95 4 0 18 -28 30 -62z m130 50 c0 -7 -16 -31 -34 -53 l-34 -40 -11 28
c-29 75 -28 77 28 77 34 0 51 -4 51 -12z m264 -10 c-13 -24 -103 -135 -119
-148 -13 -11 -20 -2 -50 63 -19 42 -35 80 -35 86 0 7 38 11 106 11 81 0 104
-3 98 -12z m195 -5 c-38 -50 -102 -128 -173 -211 l-80 -93 -24 47 c-29 56 -33
47 76 181 l74 93 70 0 c66 0 70 -1 57 -17z m171 8 c0 -7 -110 -103 -350 -305
l-24 -21 14 21 c8 12 51 63 95 114 44 51 96 114 115 141 33 46 37 48 90 52 30
2 56 4 58 5 1 1 2 -2 2 -7z m-565 -121 c19 -38 35 -75 35 -82 0 -13 -79 -102
-85 -96 -1 2 -16 39 -33 83 l-30 79 31 43 c17 24 34 43 39 43 4 0 24 -31 43
-70z m-110 -140 c14 -35 25 -69 25 -76 0 -7 -25 -40 -57 -74 l-56 -61 -33 83
-32 82 56 64 c30 34 59 59 64 54 4 -4 19 -37 33 -72z m-226 28 c23 -62 23 -63
-33 -124 -30 -32 -56 -57 -59 -54 -16 16 -7 54 28 122 22 43 43 78 48 78 4 0
11 -10 16 -22z m421 -58 c11 -21 20 -45 20 -52 0 -12 -90 -113 -94 -106 -14
26 -36 82 -36 94 0 12 76 104 86 104 2 0 13 -18 24 -40z m-347 -133 c15 -41
27 -77 27 -81 0 -9 -108 -129 -120 -134 -5 -2 -49 133 -54 170 -1 8 104 118
113 118 4 0 19 -33 34 -73z m221 -10 c9 -23 16 -48 16 -54 0 -14 -100 -103
-116 -103 -6 0 -17 18 -24 40 l-13 40 54 59 c30 32 57 59 60 60 4 0 14 -18 23
-42z m-424 -10 c0 -8 -9 -22 -20 -32 -23 -21 -25 -16 -8 20 12 27 28 34 28 12z
m50 -159 l23 -77 -51 -59 c-56 -64 -80 -87 -86 -81 -2 2 -15 46 -29 97 l-26
93 67 64 c41 39 69 59 73 52 3 -7 16 -47 29 -89z m219 11 c13 -38 12 -40 -68
-102 -59 -47 -71 -49 -71 -15 0 19 106 148 121 148 4 0 12 -14 18 -31z m-390
-187 l22 -83 -90 -95 c-50 -51 -105 -106 -123 -122 -50 -42 -148 -113 -148
-107 0 2 44 76 98 162 54 87 122 199 152 250 30 51 57 89 61 85 3 -4 16 -44
28 -90z m220 5 c-2 -2 -34 -26 -70 -55 -37 -29 -70 -52 -74 -52 -3 0 24 34 62
75 61 67 69 72 77 55 5 -11 7 -22 5 -23z"/>
<path d="M17691 15781 c-47 -47 -31 -186 36 -313 l36 -70 15 27 c8 16 34 55
59 89 79 107 98 160 73 207 -12 21 -50 25 -81 9 -16 -9 -19 -7 -19 10 0 52
-81 79 -119 41z"/>
<path d="M18662 15595 c-71 -59 -103 -230 -67 -361 9 -35 22 -67 27 -70 19
-12 304 220 329 268 8 15 7 24 -7 39 -13 15 -31 19 -81 19 l-63 0 0 48 c0 35
-5 54 -18 65 -28 25 -85 21 -120 -8z"/>
<path d="M12177 15178 c24 -82 79 -181 140 -247 38 -43 50 -61 38 -61 -35 0
-225 -70 -322 -118 -109 -54 -242 -134 -318 -192 -116 -87 -209 -113 -387
-108 -65 2 -118 0 -118 -4 0 -28 180 -118 235 -118 14 0 -56 -79 -175 -200
-161 -163 -263 -195 -480 -150 -52 10 -96 17 -98 15 -8 -8 39 -64 91 -110 59
-53 168 -109 245 -126 29 -7 52 -15 52 -18 0 -4 -16 -15 -36 -26 -94 -50 -219
-236 -304 -451 -46 -115 -158 -514 -144 -514 2 0 13 19 25 43 70 139 191 289
274 342 43 28 115 59 115 51 0 -1 -11 -30 -25 -65 -46 -113 -58 -192 -59 -381
0 -186 11 -269 59 -435 24 -81 111 -283 119 -274 2 2 -1 35 -6 74 -18 131 21
294 96 400 l33 46 6 -128 c10 -215 74 -411 196 -600 68 -105 85 -120 77 -71
-12 76 -14 157 -7 218 l7 65 8 -55 c11 -73 49 -194 97 -304 21 -49 39 -91 39
-93 0 -2 -15 -3 -34 -3 -49 0 -60 -20 -60 -104 0 -128 63 -267 146 -324 51
-35 126 -62 173 -62 54 0 96 -46 181 -197 167 -295 314 -476 469 -576 193
-123 565 -276 780 -320 50 -10 71 -18 73 -30 2 -12 -3 -17 -19 -17 -44 0 -109
-42 -177 -115 l-69 -74 -49 23 c-27 13 -80 42 -118 65 -59 37 -72 41 -95 32
-35 -13 -68 -19 -181 -31 -117 -13 -238 -50 -322 -99 l-63 -37 -440 1 -440 1
-105 33 c-194 60 -255 82 -275 101 -32 29 -71 40 -148 40 -69 0 -72 1 -129 46
-32 25 -62 43 -67 40 -4 -3 -14 -33 -21 -66 -7 -33 -18 -60 -23 -60 -6 0 -49
12 -96 26 -179 55 -711 347 -810 446 -49 48 -80 108 -81 153 0 89 121 173 344
238 153 45 197 86 149 139 -16 17 -10 18 145 18 172 0 208 7 221 42 4 13 11
174 15 359 6 294 4 338 -9 349 -32 27 -224 42 -543 44 l-313 1 -6 28 c-7 36
-54 74 -100 83 -63 12 -472 -4 -541 -21 -148 -36 -255 -132 -238 -215 4 -22
-2 -28 -55 -54 -92 -44 -119 -74 -119 -130 0 -60 21 -111 95 -231 34 -55 67
-109 73 -120 26 -52 84 -236 107 -345 14 -67 32 -137 40 -157 20 -48 93 -148
146 -202 79 -78 257 -187 364 -221 49 -16 133 -72 390 -260 296 -217 423 -298
623 -400 91 -46 107 -58 133 -100 33 -54 46 -62 90 -53 26 5 36 0 74 -37 48
-47 37 -45 185 -24 29 5 45 -1 89 -30 63 -43 87 -45 103 -11 13 30 5 29 98 10
52 -11 188 -18 450 -25 422 -10 528 -20 633 -54 39 -14 128 -37 197 -51 189
-41 199 -44 211 -67 22 -41 5 -331 -34 -573 -19 -121 -38 -267 -41 -325 -15
-247 -28 -428 -43 -625 -14 -188 -18 -213 -40 -247 -22 -36 -23 -40 -7 -69 8
-17 58 -80 109 -140 l95 -108 -21 -48 c-11 -26 -54 -165 -95 -308 -42 -143
-95 -318 -120 -390 -75 -219 -98 -333 -110 -543 l-7 -122 -48 -35 c-106 -76
-137 -154 -218 -547 -17 -80 -42 -171 -56 -202 -22 -48 -26 -74 -32 -198 -6
-142 -6 -143 -36 -173 -49 -49 -57 -67 -63 -148 l-7 -77 -78 84 c-113 121
-565 443 -754 537 -187 93 -250 29 -182 -186 14 -44 28 -95 32 -112 l7 -33
-65 0 c-80 0 -108 -17 -191 -119 -34 -41 -78 -83 -99 -94 -35 -18 -44 -19 -95
-7 -31 6 -136 49 -232 95 -204 97 -239 109 -292 102 -84 -11 -110 -62 -116
-224 -2 -68 -8 -123 -11 -123 -4 0 -50 52 -102 116 -214 265 -255 313 -341
406 -89 98 -174 170 -235 202 -44 22 -104 21 -136 -4 -73 -58 -39 -213 122
-554 34 -71 61 -130 61 -132 0 -1 -16 2 -35 7 -69 19 -142 -41 -168 -139 -14
-52 4 -52 -222 8 -190 50 -258 55 -328 21 -74 -36 -142 -134 -154 -220 -2 -20
-6 -47 -9 -60 -5 -22 -6 -22 -18 -6 -12 16 -25 17 -137 11 -68 -4 -153 -10
-189 -14 -36 -4 -364 -6 -730 -6 -589 0 -697 3 -942 22 -308 25 -431 36 -593
57 -213 27 -450 38 -687 32 -311 -8 -465 -33 -598 -100 -58 -28 -65 -36 -68
-64 -3 -25 2 -35 23 -49 24 -16 28 -15 88 13 149 72 271 88 652 87 249 -1 347
-6 500 -23 617 -72 885 -85 1655 -86 781 0 1081 16 1130 60 10 9 21 35 24 58
13 79 30 121 67 159 32 34 41 38 85 38 27 0 128 -21 224 -46 247 -66 268 -70
288 -58 9 6 24 43 34 85 10 40 27 83 38 93 18 18 22 18 47 5 15 -8 62 -47 103
-86 77 -75 105 -87 134 -57 9 8 16 27 16 41 0 13 -63 151 -140 305 -120 240
-156 327 -205 486 -10 34 19 28 77 -15 59 -43 198 -199 398 -448 221 -275 258
-308 325 -291 43 11 57 56 63 206 5 148 12 180 40 180 9 0 87 -34 172 -76 223
-109 271 -126 361 -128 74 -1 79 0 134 39 32 21 82 70 112 107 57 72 63 75
161 81 90 5 107 24 106 120 0 49 -9 97 -27 152 -14 43 -24 81 -22 83 13 13
207 -110 483 -307 223 -159 233 -167 316 -263 47 -54 74 -78 90 -78 l22 0 -37
-218 c-22 -129 -45 -235 -58 -262 -51 -111 -28 -131 200 -171 142 -25 192 -30
274 -26 125 6 191 22 212 53 13 21 13 28 -1 71 -8 26 -20 106 -25 176 -11 132
-25 176 -64 207 l-21 17 23 52 c12 29 26 91 32 139 13 124 27 176 71 266 57
120 52 138 -44 158 -38 8 -58 17 -58 26 0 8 16 49 35 92 40 90 43 115 14 146
l-21 22 56 131 c95 223 138 282 252 346 50 28 51 29 93 143 123 330 265 625
433 895 62 100 84 127 96 122 10 -4 29 -9 45 -12 24 -5 27 -2 27 20 0 19 21
43 87 101 48 41 88 74 90 72 1 -1 -2 -18 -7 -37 -36 -123 -70 -506 -70 -780
l0 -170 -39 -49 c-22 -28 -52 -76 -67 -107 -24 -51 -29 -73 -32 -172 -3 -78 1
-148 13 -222 19 -120 23 -98 -40 -218 -16 -30 -16 -39 -5 -65 21 -52 23 -93 6
-118 -26 -37 -20 -90 14 -133 36 -46 38 -71 6 -79 -28 -7 -31 -28 -46 -336
-12 -257 -34 -398 -71 -471 -51 -103 -38 -127 86 -153 135 -27 177 -29 224 -7
46 20 60 19 101 -9 61 -42 342 -112 444 -111 126 1 132 6 167 165 20 88 20 90
1 115 -10 14 -70 53 -133 86 -63 33 -163 96 -223 139 l-108 79 6 51 c10 70 43
137 110 224 62 80 69 110 32 147 -26 26 -121 59 -205 70 l-54 7 6 97 c8 107
35 218 72 292 29 55 30 76 10 103 -21 28 -19 66 11 165 36 118 75 197 156 316
l69 102 -12 109 c-13 118 -7 375 11 509 25 189 94 564 111 604 5 13 57 74 116
137 58 62 117 128 130 148 l25 34 -16 124 c-10 68 -31 191 -49 273 l-32 150 0
445 c0 245 4 467 9 495 l8 50 36 -41 c21 -22 57 -69 82 -104 25 -34 85 -103
134 -151 l88 -89 -21 -113 c-115 -600 -140 -778 -162 -1136 -10 -172 -14 -196
-32 -214 -19 -19 -19 -20 -2 -34 11 -7 29 -13 42 -13 21 0 23 -3 18 -32 -3
-18 -7 -267 -8 -553 l-2 -520 83 -330 c98 -388 108 -440 123 -645 20 -273 -5
-589 -62 -770 -60 -191 -194 -386 -335 -486 -77 -55 -98 -100 -67 -143 11 -14
31 -32 44 -38 89 -46 314 43 510 200 33 27 62 47 63 45 3 -3 15 -160 16 -205
0 -21 5 -23 46 -23 38 0 45 3 40 16 -3 8 -8 120 -11 247 -3 128 -11 281 -17
341 -15 144 -8 248 52 776 28 245 56 493 62 553 7 59 16 107 20 107 18 0 122
-107 182 -187 121 -161 197 -323 313 -668 58 -173 64 -198 65 -275 0 -97 -24
-211 -97 -444 -50 -162 -70 -207 -121 -277 -19 -26 -34 -51 -34 -56 0 -16 45
-53 65 -53 36 0 193 109 297 208 107 102 142 181 155 356 l8 99 93 -77 c52
-42 98 -76 102 -76 15 0 60 62 53 73 -3 7 -26 35 -49 62 -61 73 -103 143 -119
200 -9 31 -37 78 -70 120 -124 157 -121 150 -215 545 -81 342 -103 419 -155
526 -52 107 -114 192 -193 266 -58 53 -89 75 -193 141 -50 31 -60 43 -79 94
-16 41 -22 81 -22 138 -1 75 3 89 60 230 96 240 110 268 127 261 40 -15 59 36
36 97 -22 58 33 154 196 337 220 250 304 355 341 429 36 72 37 79 37 182 0
105 -1 107 -40 180 l-39 74 -1 120 c0 107 -2 123 -21 147 -18 23 -20 34 -13
75 16 95 12 129 -19 155 -24 20 -27 29 -24 68 3 43 1 48 -47 95 -28 27 -51 53
-51 59 0 5 -7 14 -16 20 -13 10 -8 17 39 48 95 63 232 185 343 304 112 119
124 124 124 56 0 -18 15 -95 34 -170 39 -157 73 -339 111 -597 25 -168 29
-184 62 -234 35 -54 122 -217 318 -596 54 -104 114 -215 133 -245 29 -44 39
-75 53 -160 10 -58 19 -149 19 -202 0 -102 10 -148 33 -148 36 0 93 110 116
226 9 46 19 86 23 89 3 3 45 -38 94 -92 191 -210 328 -323 389 -323 16 0 17 2
3 18 -19 20 -101 182 -93 182 3 0 46 -20 95 -45 127 -64 159 -59 103 14 -57
75 -110 125 -193 181 -47 33 -137 103 -202 157 -64 54 -134 109 -156 123 -46
29 -138 166 -201 300 -22 47 -78 201 -125 342 -55 168 -101 287 -130 341 -79
144 -77 133 -76 492 1 290 5 431 26 815 6 115 5 129 -14 165 -26 51 -80 102
-163 154 -73 45 -89 70 -89 139 1 67 16 102 113 265 76 126 94 149 140 180 72
47 148 85 286 141 129 53 211 96 319 169 41 27 76 47 78 44 11 -11 -76 -165
-116 -205 -45 -47 -131 -106 -198 -136 -23 -10 -42 -23 -42 -27 0 -5 26 -16
58 -25 62 -19 209 -24 307 -11 l60 8 -49 -46 c-147 -138 -305 -222 -481 -256
-61 -11 -66 -14 -40 -20 17 -4 86 -7 155 -8 139 -1 316 29 405 68 26 12 50 19
52 17 8 -7 -94 -89 -172 -138 l-80 -49 50 6 c139 18 296 78 385 146 62 48 75
56 65 38 -31 -51 -92 -124 -145 -172 -61 -54 -182 -127 -214 -127 -9 0 -16 -4
-16 -10 0 -26 223 31 328 84 203 103 429 326 557 551 168 295 320 814 381
1300 33 263 24 610 -22 850 -81 421 -342 830 -729 1142 -253 204 -583 377
-893 467 -219 64 -333 80 -552 80 -178 0 -209 -3 -360 -33 -383 -75 -684 -168
-912 -282 -54 -27 -102 -49 -107 -49 -5 0 -12 21 -16 47 -19 128 -101 249
-228 335 -32 22 -57 42 -55 44 10 9 173 -19 245 -42 73 -24 205 -92 218 -114
3 -6 11 -10 16 -10 6 0 -3 19 -19 43 -16 23 -52 81 -81 129 -76 127 -140 187
-266 250 -48 24 -208 79 -269 93 l-29 6 60 62 c57 58 108 129 147 204 l16 32
-67 -30 c-170 -76 -582 -228 -620 -229 -7 0 -13 5 -13 11 0 20 -79 125 -137
180 -154 150 -369 249 -652 301 -98 18 -159 22 -391 24 -254 1 -280 3 -345 24
-85 27 -157 63 -206 101 -20 16 -39 29 -42 29 -3 0 1 -24 10 -52z m953 -577
c140 -24 323 -61 329 -67 8 -7 -17 -4 -117 13 -155 27 -577 24 -742 -5 -242
-41 -424 -99 -622 -197 -60 -29 -108 -49 -108 -44 0 16 112 105 197 156 131
79 302 135 498 163 104 15 426 4 565 -19z m367 -77 c-3 -3 -12 -4 -19 -1 -8 3
-5 6 6 6 11 1 17 -2 13 -5z m-1064 -224 c-39 -16 -216 -135 -295 -199 -42 -34
-111 -98 -153 -143 -41 -45 -75 -76 -75 -69 0 43 111 183 214 270 67 57 156
107 236 132 59 19 115 26 73 9z m1735 -208 c80 -79 126 -164 142 -262 12 -78
12 -327 0 -355 -6 -15 -9 -8 -9 27 -1 26 -10 93 -21 148 -36 187 -92 341 -164
454 -20 31 -32 56 -26 56 5 0 40 -31 78 -68z m-1244 -83 c-131 -117 -449 -446
-529 -547 -43 -55 -81 -99 -83 -97 -7 7 77 153 131 229 157 222 293 352 462
443 90 49 96 40 19 -28z m906 -159 c-40 -318 -215 -619 -485 -831 -101 -79
-105 -80 -41 -5 235 277 411 602 498 921 l33 120 3 -55 c2 -30 -2 -98 -8 -150z
m258 58 c85 -139 105 -369 45 -505 l-17 -38 -8 120 c-10 160 -34 334 -58 423
-11 40 -20 75 -20 78 0 9 32 -33 58 -78z m-655 -60 c-90 -144 -123 -192 -181
-268 -137 -178 -255 -290 -350 -332 -78 -35 -80 -19 -7 62 37 41 125 143 195
225 156 182 332 355 362 355 5 0 -4 -19 -19 -42z m-1179 5 c-181 -277 -402
-680 -459 -838 -18 -50 -43 -89 -32 -50 4 11 15 63 27 115 65 302 220 585 408
746 35 30 66 54 69 54 3 0 -3 -12 -13 -27z m3096 -32 c-247 -80 -472 -235
-548 -379 -61 -113 -137 -343 -196 -592 -13 -58 -27 -114 -30 -125 -2 -11 -2
34 0 100 10 235 51 438 115 572 93 194 297 339 599 423 85 24 133 25 60 1z
m-1761 -53 c-11 -29 -45 -100 -76 -158 -145 -274 -299 -459 -465 -557 -107
-63 -106 -51 5 73 165 185 278 324 420 516 73 98 133 178 134 178 2 0 -7 -24
-18 -52z m-846 -199 c-98 -118 -208 -253 -243 -301 -36 -48 -66 -85 -68 -83
-3 2 16 42 40 88 107 201 235 359 373 462 39 29 71 51 73 50 2 -1 -77 -99
-175 -216z m338 139 c-179 -244 -420 -538 -442 -538 -5 0 37 53 93 118 121
138 197 231 297 365 40 53 75 97 78 97 3 0 -9 -19 -26 -42z m3514 -5 c331 -63
715 -272 957 -520 72 -74 158 -185 158 -205 0 -5 -24 10 -52 35 -88 74 -275
209 -428 309 -284 186 -517 307 -765 397 -29 10 -28 10 10 5 22 -3 76 -12 120
-21z m-252 -94 c305 -76 740 -349 1045 -657 201 -204 353 -451 387 -632 6 -28
-6 -15 -60 70 -107 167 -219 304 -390 476 -217 218 -422 378 -680 532 -116 68
-420 222 -442 222 -6 0 -15 5 -18 10 -8 13 52 5 158 -21z m-2406 -267 c-30
-157 -92 -272 -186 -342 -29 -22 -57 -40 -62 -40 -6 0 8 26 29 58 71 104 217
400 224 454 0 7 3 -2 5 -20 2 -17 -2 -67 -10 -110z m1547 -34 c-59 -73 -143
-183 -188 -245 -44 -62 -82 -110 -85 -108 -7 7 76 171 124 246 57 88 135 172
195 210 25 16 48 29 53 29 4 0 -41 -60 -99 -132z m-216 25 c-152 -260 -263
-388 -152 -176 31 60 70 127 86 151 34 50 94 112 108 112 5 0 -13 -39 -42 -87z
m1594 -230 c42 -27 113 -77 159 -113 117 -92 332 -309 412 -415 67 -90 151
-237 145 -255 -2 -6 -31 25 -65 68 -196 249 -540 609 -681 715 -82 60 -68 60
30 0z m-4083 10 c-154 -200 -307 -341 -432 -398 -31 -15 -66 -25 -77 -23 -16
3 -9 17 53 98 40 52 90 113 112 135 35 35 324 205 349 205 5 0 2 -8 -5 -17z
m2661 -283 c-13 -132 -13 -387 1 -485 5 -42 18 -102 28 -133 l17 -57 6 110 c5
87 13 131 40 210 l33 100 6 -170 c9 -231 45 -368 128 -490 25 -36 25 -34 5 52
-33 138 -6 340 63 478 32 63 111 175 124 175 5 0 9 -54 9 -127 0 -129 11 -229
32 -293 l12 -35 13 75 c16 96 75 216 146 296 l54 62 6 -162 c8 -220 49 -432
103 -538 17 -33 13 -33 -50 -12 -85 29 -236 0 -309 -59 l-29 -23 104 4 c169 6
334 -42 398 -115 37 -41 37 -63 5 -111 -34 -49 -31 -58 8 -28 17 13 49 27 70
31 29 6 37 12 37 29 0 13 11 33 25 46 55 51 106 175 142 342 9 43 20 75 24 71
15 -17 39 -155 39 -226 0 -102 -48 -252 -98 -309 -14 -17 -13 -18 14 -18 37 0
99 32 142 74 39 37 110 172 118 227 10 58 21 47 31 -28 10 -86 10 -192 0 -316
-5 -61 -4 -96 2 -93 23 14 71 102 71 129 0 54 13 19 26 -70 8 -49 13 -128 13
-178 0 -79 -6 -110 -49 -250 -26 -88 -47 -162 -45 -163 7 -7 96 60 144 108 43
43 73 91 96 155 7 20 7 20 15 -1 16 -41 33 -218 27 -293 -3 -43 -12 -92 -21
-110 -29 -55 -120 -111 -216 -132 -51 -11 -136 -62 -151 -90 -16 -31 -109 -95
-208 -145 -296 -147 -858 -284 -1161 -284 -94 0 -198 17 -227 36 -31 19 -106
177 -199 414 -278 712 -362 1055 -267 1091 34 13 73 4 115 -27 85 -63 153
-103 162 -94 20 20 -68 129 -158 195 l-39 28 6 58 c3 33 3 59 1 59 -2 0 -15
-20 -30 -45 -38 -66 -67 -58 -80 23 -7 44 -24 58 -24 20 0 -27 -16 -55 -25
-46 -13 13 -22 121 -14 171 6 38 16 58 36 76 24 21 34 23 93 18 78 -7 150 -32
214 -76 26 -18 49 -31 52 -28 10 9 -76 105 -120 134 -50 34 -123 55 -192 57
l-44 1 0 65 c0 36 3 88 6 117 l7 52 20 -25 c30 -38 43 -17 38 64 -2 37 -4 110
-5 163 0 89 2 100 33 163 18 37 34 66 36 64 2 -2 6 -41 10 -88 18 -224 67
-415 139 -544 35 -63 151 -195 162 -184 2 3 -11 28 -30 56 -73 109 -107 262
-87 391 6 42 18 99 25 126 13 49 13 49 20 20 38 -157 50 -198 77 -254 30 -66
74 -131 87 -131 4 0 5 77 4 171 -4 186 5 261 44 379 23 67 110 217 121 207 2
-3 -1 -51 -7 -107z m-1075 -385 c6 -171 27 -361 44 -407 6 -18 9 -11 15 30 4
29 11 62 15 75 20 51 23 -89 12 -496 -10 -407 -18 -506 -51 -627 -15 -56 -97
-219 -217 -433 -52 -93 -93 -170 -91 -172 2 -2 44 45 93 105 50 59 92 107 93
105 7 -7 -112 -151 -183 -221 -62 -62 -96 -105 -141 -180 -11 -18 -12 -18 -31
-1 -27 24 -33 22 -33 -11 0 -38 -8 -44 -35 -26 -22 14 -23 14 -30 -23 l-7 -38
-24 30 -24 30 0 -41 c0 -22 -7 -49 -15 -60 -15 -19 -16 -18 -39 9 -32 34 -37
34 -30 -2 8 -38 -8 -46 -40 -20 -34 27 -47 18 -35 -27 16 -56 6 -59 -28 -10
-18 26 -37 46 -43 46 -5 0 -13 -18 -16 -40 -4 -22 -11 -40 -16 -40 -5 0 -34
13 -66 29 -31 15 -118 47 -192 71 -498 156 -676 244 -851 419 -201 202 -310
395 -432 766 -61 185 -177 648 -177 706 0 88 137 273 326 440 146 129 174 152
179 147 8 -8 -74 -152 -123 -215 -26 -33 -67 -86 -91 -117 -24 -31 -41 -59
-37 -63 8 -8 240 148 473 319 195 143 195 143 63 -42 -83 -118 -116 -151 -269
-273 -145 -117 -146 -124 -9 -81 252 80 544 250 770 448 48 42 89 76 92 76 12
0 -67 -157 -120 -238 -67 -103 -159 -201 -271 -289 -46 -36 -83 -67 -83 -70 0
-3 30 -3 66 1 207 21 587 244 852 500 l53 51 -20 -55 c-49 -141 -128 -272
-228 -380 -36 -39 -50 -60 -39 -60 28 0 236 112 351 190 128 86 266 220 340
330 27 41 52 79 56 83 4 5 2 -15 -3 -44 -10 -57 -36 -129 -92 -254 -20 -44
-36 -88 -36 -99 0 -16 4 -15 38 9 62 47 132 117 178 182 51 70 119 210 130
268 8 37 9 33 15 -45 4 -47 10 -166 14 -265z m2773 -8 c93 -135 202 -376 252
-559 26 -97 49 -218 41 -218 -3 0 -21 42 -40 93 -85 235 -210 536 -283 681
-56 111 -46 112 30 3z m360 -255 c207 -306 274 -565 252 -972 -8 -142 -47
-390 -62 -390 -4 0 -8 29 -8 65 0 69 -32 425 -50 560 -44 325 -130 667 -202
810 -33 63 1 27 70 -73z m-7974 -481 c7 -11 -158 -87 -209 -96 -64 -12 -75
-22 -40 -35 57 -23 98 -23 154 0 53 21 59 21 315 10 144 -6 352 -9 463 -8 126
2 206 -1 212 -7 7 -7 4 -71 -9 -199 -14 -145 -17 -207 -10 -270 14 -118 13
-125 -14 -135 -46 -18 -244 -40 -401 -45 -88 -3 -249 -11 -358 -17 -109 -6
-264 -10 -345 -8 -134 4 -152 6 -197 29 -79 41 -114 136 -130 355 l-6 90 68
32 c133 62 198 143 197 245 l-1 57 61 4 c131 7 245 7 250 -2z m-415 -25 c-2
-2 -42 -20 -89 -41 -47 -21 -102 -46 -122 -55 -21 -10 -38 -15 -38 -12 0 4 15
24 33 45 29 35 39 39 112 52 88 14 110 17 104 11z m-10 -115 c-25 -34 -107
-93 -159 -115 -66 -27 -67 -32 -65 -221 4 -264 33 -376 107 -416 15 -8 106
-12 277 -14 158 -1 263 -5 275 -12 31 -17 3 -25 -97 -27 -110 -3 -156 -21
-198 -79 -36 -49 -37 -97 -6 -151 37 -65 50 -59 42 18 l-7 66 36 34 c43 41
114 59 216 55 52 -3 73 0 87 13 41 36 109 61 178 66 l70 4 -70 -47 c-88 -58
-129 -98 -163 -155 -36 -60 -37 -145 -3 -210 52 -98 206 -230 401 -342 125
-71 239 -123 440 -198 91 -34 168 -65 171 -69 4 -3 -10 -76 -30 -161 -30 -123
-40 -155 -53 -154 -34 3 -557 337 -818 522 -199 142 -292 196 -369 216 -115
30 -319 182 -375 280 -16 27 -37 103 -60 218 -43 212 -79 315 -153 440 -30 51
-66 115 -80 142 -25 49 -25 49 -6 75 42 56 422 286 431 261 2 -5 -7 -22 -19
-39z m5586 -103 c16 -146 36 -261 60 -336 49 -156 43 -219 -28 -300 -55 -62
-146 -139 -227 -192 l-65 -42 105 5 c88 4 117 10 178 35 39 17 72 27 72 23 0
-4 -25 -36 -56 -70 -59 -64 -112 -97 -232 -141 -55 -20 -61 -25 -45 -34 33
-19 190 -12 281 13 46 13 85 21 87 19 3 -2 -17 -29 -44 -59 -55 -61 -123 -102
-223 -134 -38 -12 -69 -26 -69 -31 -1 -16 104 -43 172 -43 107 -1 262 47 358
110 l34 23 -7 -34 c-12 -64 -49 -125 -117 -191 -36 -37 -78 -75 -93 -84 -42
-28 -30 -34 34 -19 83 19 122 37 197 89 l65 46 49 -46 c27 -26 80 -61 117 -78
65 -31 71 -32 192 -31 120 1 277 24 465 68 33 8 62 12 64 10 9 -9 -32 -69 -83
-122 -54 -56 -101 -85 -219 -131 -394 -156 -762 -329 -834 -394 -12 -10 -26
-18 -31 -16 -5 2 -45 49 -90 105 -171 213 -314 319 -487 363 -125 30 -135 32
-135 21 0 -14 192 -329 264 -433 98 -142 128 -193 241 -411 l107 -206 7 -153
c4 -83 6 -154 4 -156 -2 -3 -9 2 -16 11 -6 9 -73 91 -148 184 -214 266 -252
327 -271 435 -5 32 -16 63 -24 69 -11 10 -13 -44 -12 -332 0 -199 -4 -383 -10
-438 -15 -119 -15 -591 -2 -810 11 -163 23 -252 61 -444 l19 -99 -22 -28 c-13
-15 -75 -86 -138 -157 -64 -71 -137 -162 -164 -201 -26 -39 -51 -71 -55 -71
-17 0 -130 112 -145 145 -55 116 -68 401 -73 1650 -2 545 -4 1018 -5 1053 0
34 3 66 6 70 18 17 77 -91 84 -155 2 -24 9 -46 15 -50 34 -21 159 194 223 384
l37 112 -78 83 c-44 46 -87 86 -95 90 -14 5 -15 15 -6 77 12 78 16 84 67 100
20 7 43 19 52 29 25 29 176 289 255 442 89 172 137 254 194 332 l42 58 8 151
c4 84 13 170 19 192 17 63 68 132 101 136 3 1 9 -27 13 -61z m-2958 -50 c95
-148 136 -219 129 -225 -11 -11 -93 27 -135 63 -84 73 -121 184 -77 233 11 12
20 21 22 21 1 0 29 -42 61 -92z m4406 -1380 c45 -33 41 -296 -4 -363 -39 -56
-308 -244 -402 -281 -80 -32 -187 -53 -234 -47 -58 7 -111 22 -119 34 -3 6 21
35 54 65 57 51 81 88 68 101 -3 3 -45 -18 -92 -47 l-87 -53 -28 34 c-16 19
-29 37 -29 40 0 8 299 133 409 171 46 16 112 35 146 43 58 14 68 21 141 95 90
93 114 126 114 158 0 30 17 62 33 62 7 0 21 -6 30 -12z m-2275 -56 c4 -67 -19
-151 -60 -219 -44 -73 -135 -173 -158 -173 -25 0 -121 90 -160 149 -35 55 -36
43 25 161 l23 45 18 -38 c27 -56 48 -49 90 31 l12 24 7 -31 c8 -37 20 -40 29
-8 l7 22 9 -22 c5 -13 16 -23 24 -23 26 0 95 74 102 109 10 47 29 32 32 -27z
m142 -116 c8 -16 10 -39 7 -64 -10 -59 -65 -218 -99 -286 l-31 -61 -16 24 c-9
14 -30 50 -48 82 l-32 57 37 49 c20 26 56 72 80 102 24 30 51 69 60 87 19 40
24 42 42 10z m-3200 -46 c20 -39 22 -40 43 -25 25 18 113 20 123 3 22 -35 -41
-366 -88 -460 -19 -39 -61 -68 -98 -68 -25 0 -25 3 -1 65 10 28 31 110 46 182
l26 133 -19 43 c-29 65 -39 65 -52 0 -26 -136 -70 -254 -106 -284 -15 -12 -16
-12 -11 6 16 56 27 107 37 180 5 44 19 107 30 140 11 33 21 74 24 90 6 38 4
35 16 35 5 0 19 -18 30 -40z m2580 -32 c25 -40 80 -108 123 -152 l78 -81 -12
-45 c-7 -25 -17 -76 -23 -115 l-11 -70 -108 135 c-143 178 -207 274 -207 310
0 21 10 37 37 59 56 46 71 41 123 -41z m-422 -9 c49 -34 71 -42 132 -50 41 -5
77 -12 80 -16 4 -5 59 -73 122 -153 142 -179 209 -253 264 -291 60 -41 77 -39
67 9 -10 49 -7 130 7 183 l12 42 23 -24 c22 -22 24 -37 36 -209 12 -193 14
-939 3 -1490 -7 -347 8 -745 31 -833 17 -65 19 -134 6 -169 -5 -14 -68 -67
-146 -123 -76 -55 -158 -117 -182 -139 l-44 -38 -47 39 c-105 89 -216 174
-281 218 -45 29 -87 68 -116 107 l-46 61 6 156 c12 303 25 537 36 628 14 117
11 125 -41 117 l-40 -7 0 81 c0 203 35 388 116 618 24 70 42 129 39 132 -3 3
-26 -4 -51 -16 -25 -12 -50 -19 -56 -16 -16 10 -2 97 30 194 27 81 30 85 60
88 40 4 40 13 0 48 -69 58 -241 124 -493 189 -77 20 -156 41 -175 46 -19 5
-47 19 -62 32 l-28 24 -362 6 c-326 6 -656 25 -746 43 -26 5 -38 2 -56 -15
-21 -20 -56 -21 -56 -1 0 4 -13 13 -30 20 -16 7 -30 14 -30 15 0 1 11 32 25
68 29 78 61 231 70 340 4 42 11 77 16 77 4 0 20 -5 36 -11 77 -30 202 -63 326
-85 152 -26 188 -39 262 -89 32 -21 68 -36 100 -40 42 -6 48 -5 34 7 -16 12
-69 92 -69 103 0 3 82 5 183 5 270 0 393 13 480 51 69 31 98 38 352 83 72 13
133 24 137 25 3 0 33 -17 66 -40z m1417 -64 c69 -42 115 -82 285 -243 l125
-119 -27 -39 c-25 -37 -26 -46 -26 -157 0 -65 -3 -121 -6 -124 -13 -14 -156
229 -234 398 -37 81 -110 199 -174 282 -38 48 -20 48 57 2z m1935 -115 c23
-22 48 -40 55 -40 26 0 84 -60 101 -105 16 -42 16 -51 0 -147 -27 -165 -42
-611 -28 -850 10 -195 45 -464 62 -482 4 -4 11 1 15 13 3 12 10 21 14 21 11 0
48 -86 60 -141 13 -57 88 -276 136 -399 84 -214 181 -364 282 -440 134 -101
195 -177 270 -338 24 -52 43 -96 41 -98 -6 -5 -169 183 -238 274 -60 81 -86
97 -108 70 -7 -10 -62 -258 -62 -283 0 -3 -4 -5 -9 -5 -5 0 -11 64 -13 143
l-3 142 -88 180 c-100 207 -119 245 -246 490 -150 289 -179 341 -216 385 -26
31 -35 51 -35 78 0 63 -60 540 -90 719 -34 195 -63 310 -94 368 l-21 40 -3
-117 -3 -116 -32 -15 c-55 -27 -125 -40 -184 -35 -48 4 -61 10 -85 37 -65 73
-21 194 149 401 29 36 97 103 150 150 53 47 111 97 127 112 17 15 36 28 43 28
6 0 30 -18 53 -40z m-1077 -155 l16 -44 -76 -73 c-47 -45 -85 -92 -99 -123
-13 -27 -21 -51 -19 -53 2 -3 28 17 58 44 30 27 81 70 114 96 l60 47 78 -55
c49 -34 105 -62 149 -76 39 -12 72 -23 74 -24 6 -4 -108 -434 -120 -454 -18
-29 -50 -35 -86 -16 -17 9 -86 69 -155 134 -188 178 -284 244 -332 226 -19 -8
-27 -34 -12 -39 107 -37 131 -51 196 -111 127 -117 189 -248 212 -444 19 -163
-3 -1004 -31 -1213 -27 -198 -66 -291 -194 -470 -47 -65 -86 -123 -89 -130 -2
-8 -38 -4 -126 17 -67 15 -166 32 -219 38 -53 6 -98 12 -100 13 -1 1 6 25 17
52 31 79 79 290 91 398 24 220 33 283 86 600 104 626 108 670 78 757 -12 38
-13 57 -5 104 6 32 11 176 11 320 l0 263 31 36 c41 47 333 225 369 225 4 0 15
-20 23 -45z m376 -1108 c14 -6 31 -27 38 -45 18 -43 0 -50 -62 -26 -47 18 -71
45 -61 70 7 17 52 18 85 1z m16 -238 c-18 -51 -52 -99 -70 -99 -10 0 -1 21 25
62 22 33 40 65 40 70 0 4 4 8 10 8 5 0 3 -18 -5 -41z m56 -112 c-16 -45 -35
-96 -44 -112 -15 -30 -67 -85 -67 -72 0 33 66 188 96 223 19 24 37 44 39 44 2
0 -9 -37 -24 -83z m31 -205 c-23 -44 -38 -50 -46 -18 -7 29 5 66 37 110 l22
31 3 -43 c2 -28 -3 -56 -16 -80z m-1634 -1219 c-107 -557 -133 -784 -107 -956
l11 -73 -55 -85 c-185 -284 -255 -493 -187 -554 17 -15 17 -18 -6 -59 -40 -71
-64 -186 -64 -302 0 -89 -2 -103 -16 -97 -8 3 -25 -4 -38 -16 l-24 -22 -16 22
c-9 13 -16 29 -16 35 0 6 -7 17 -15 24 -30 25 -14 113 27 157 l21 23 -26 24
c-35 32 -34 61 3 94 28 26 29 29 18 67 -28 93 -2 391 42 493 12 26 32 50 53
62 l35 21 5 247 c5 273 29 457 87 650 31 105 89 262 96 262 3 0 22 -11 42 -25
20 -14 44 -25 53 -25 9 0 32 28 54 65 21 36 39 65 40 65 1 0 -7 -44 -17 -97z
m762 51 c183 -45 190 -49 190 -117 0 -28 -7 -85 -15 -127 -38 -190 -125 -677
-125 -698 0 -12 15 -62 34 -110 56 -144 71 -227 70 -397 0 -110 -6 -180 -22
-262 -33 -174 -51 -327 -82 -688 -5 -66 -18 -171 -27 -232 -14 -98 -19 -113
-35 -113 -17 0 -18 5 -12 63 13 112 10 705 -4 802 -25 176 -84 482 -123 633
-48 192 -56 252 -70 592 -19 448 3 707 58 694 10 -2 83 -20 163 -40z m-1673
-69 c62 -47 113 -87 113 -89 0 -1 -52 -97 -116 -212 -240 -433 -391 -750 -428
-897 -10 -41 -18 -51 -56 -73 -115 -65 -196 -187 -282 -429 -33 -92 -39 -118
-34 -160 6 -49 -21 -176 -40 -195 -5 -4 -43 -10 -85 -12 l-77 -3 -6 52 c-4 36
-2 64 8 87 14 35 87 96 113 96 17 0 17 4 -7 50 -29 56 -25 78 19 120 39 37 39
37 34 101 -4 50 0 77 17 121 44 116 149 251 229 293 31 15 31 17 31 93 0 233
106 596 246 846 73 130 183 296 197 296 5 0 61 -38 124 -85z m2032 -944 c117
-69 235 -209 324 -387 65 -128 92 -217 127 -415 28 -161 90 -432 123 -541 13
-42 13 -49 -4 -74 -13 -20 -19 -24 -23 -14 -2 8 -23 78 -47 155 -76 248 -152
434 -231 563 -44 73 -210 275 -260 317 -52 44 -148 292 -168 437 -6 38 -8 74
-4 79 3 5 26 -11 51 -36 24 -25 75 -63 112 -84z m-2731 -1189 c15 -10 10 -26
-43 -134 -36 -73 -79 -128 -100 -128 -13 0 -75 -212 -75 -257 0 -36 -21 -53
-64 -53 -31 0 -33 22 -11 115 8 33 15 92 15 132 0 59 -5 82 -30 135 -57 120
-49 168 32 186 53 12 258 15 276 4z m1102 -60 l23 -18 -21 -65 c-49 -150 -55
-218 -27 -285 36 -86 81 -111 171 -93 l62 12 43 -35 c24 -19 124 -90 222 -158
97 -68 177 -129 177 -137 0 -23 -26 -66 -58 -96 -36 -35 -80 -39 -136 -12 -46
22 -149 115 -173 156 -17 29 -18 29 -119 29 -55 0 -149 3 -208 7 l-108 6 6 31
c3 17 15 157 26 311 11 154 23 292 26 308 11 55 53 72 94 39z m239 -14 c47 -7
81 -18 93 -30 18 -18 18 -19 -1 -56 -11 -20 -50 -76 -88 -123 -37 -47 -77 -99
-89 -114 -26 -36 -46 -29 -74 24 -29 58 -26 127 10 218 17 41 30 81 30 90 0
11 6 14 23 9 12 -3 55 -11 96 -18z m-1734 -150 c21 -73 19 -133 -10 -218 -60
-176 -20 -227 146 -184 68 17 133 14 155 -8 20 -20 45 -151 42 -217 l-3 -56
-55 -12 c-78 -16 -202 -15 -295 2 -95 17 -152 33 -159 43 -3 5 8 60 24 123 25
104 80 360 111 517 6 34 15 62 20 62 5 0 15 -23 24 -52z m320 -175 c-14 -74
-31 -123 -41 -123 -13 0 4 140 20 165 28 42 34 28 21 -42z m3415 -85 c0 -187
-37 -317 -102 -362 -29 -21 -31 -16 -13 27 21 50 40 146 60 302 19 152 20 155
40 155 13 0 15 -19 15 -122z m-965 -158 c11 -17 -26 -134 -71 -229 -35 -72
-61 -108 -112 -160 -68 -67 -161 -122 -232 -136 -34 -7 -32 -6 28 40 72 54
121 110 173 195 32 53 98 193 128 273 9 22 17 27 45 27 19 0 38 -4 41 -10z
m-1075 -198 c0 -4 32 -40 70 -80 39 -40 70 -75 70 -77 0 -2 -26 4 -57 12 -53
13 -83 27 -199 94 l-41 23 -53 -22 c-60 -25 -137 -29 -165 -8 -16 12 -18 19
-10 42 10 27 13 28 60 24 66 -7 189 -2 245 8 42 8 80 1 80 -16z m-1828 -111
c102 -41 217 -55 348 -43 58 5 107 8 108 7 8 -7 -105 -36 -171 -44 -82 -11
-238 1 -306 24 -57 19 -87 50 -69 72 13 16 4 18 90 -16z"/>
<path d="M15985 11381 c-16 -4 -52 -18 -80 -30 -120 -53 -109 -97 16 -65 115
29 216 10 322 -61 l51 -34 46 25 c25 14 59 36 75 50 l30 25 -50 -5 c-27 -3
-60 -8 -72 -12 -31 -9 -30 16 2 46 14 13 23 25 22 27 -2 2 -22 -3 -45 -11 -40
-14 -43 -14 -100 16 -63 32 -157 45 -217 29z"/>
<path d="M15115 11195 c-4 -27 -16 -74 -26 -104 -34 -97 -21 -173 32 -201 24
-14 174 -31 195 -23 10 4 -4 13 -41 28 -111 46 -118 57 -130 220 -9 118 -20
147 -30 80z"/>
<path d="M15080 10692 c0 -45 138 -195 227 -247 30 -17 38 -18 95 -6 120 24
197 64 273 141 78 79 72 87 -30 44 -208 -89 -271 -104 -326 -81 -38 16 -88 54
-167 128 -29 27 -57 49 -62 49 -6 0 -10 -13 -10 -28z"/>
<path d="M15385 10339 c-16 -5 -45 -7 -63 -4 -29 5 -33 4 -30 -12 6 -30 68
-40 114 -17 67 33 52 56 -21 33z"/>
<path d="M13647 12040 c-101 -32 -221 -142 -268 -245 -19 -40 -24 -86 -13 -98
4 -4 30 15 59 42 143 130 353 225 578 261 60 10 75 16 67 25 -31 37 -323 47
-423 15z"/>
<path d="M12248 11860 c-68 -12 -143 -56 -199 -118 -42 -46 -89 -118 -89 -136
0 -3 39 13 86 35 48 22 126 51 175 65 76 22 102 25 177 20 48 -3 105 -8 127
-11 22 -4 53 -2 69 4 26 11 27 13 14 34 -47 72 -238 129 -360 107z"/>
<path d="M13790 11638 c-115 -36 -157 -86 -125 -149 20 -38 99 -89 138 -89 61
0 115 41 130 100 6 22 25 39 135 116 13 10 6 14 -40 28 -74 21 -158 19 -238
-6z m39 -111 c15 -19 4 -27 -36 -27 -36 0 -43 13 -15 29 23 14 38 13 51 -2z"/>
<path d="M12381 11485 c-82 -23 -131 -54 -131 -82 0 -33 109 -139 157 -152 46
-13 62 -2 118 81 29 43 59 73 92 93 l50 30 -56 17 c-81 26 -166 31 -230 13z
m42 -112 c12 -11 -14 -33 -39 -33 -25 0 -39 14 -29 30 7 11 58 14 68 3z"/>
<path d="M13173 10891 c5 -163 9 -171 81 -171 36 0 146 41 146 54 0 2 -18 2
-39 -1 -87 -12 -98 1 -158 166 l-34 96 4 -144z"/>
<path d="M13925 10748 c-12 -26 -239 -184 -336 -233 -96 -49 -177 -62 -257
-41 -35 9 -82 29 -105 45 -23 15 -51 31 -63 35 -26 8 -53 -12 -56 -44 -2 -19
3 -27 27 -35 17 -5 46 -22 65 -37 48 -37 146 -67 238 -74 71 -6 80 -9 114 -42
68 -65 117 -48 257 88 39 38 71 74 71 80 0 24 63 156 86 181 30 32 30 50 1 77
-29 27 -30 27 -42 0z m-100 -245 c-22 -52 -69 -98 -114 -112 -71 -21 -110 -9
-53 16 15 7 61 40 102 73 41 33 76 60 78 60 1 0 -5 -17 -13 -37z"/>
<path d="M9980 11362 c-39 -40 -58 -127 -39 -179 29 -74 126 -106 195 -64 84
51 86 211 3 240 -45 15 -54 4 -26 -32 34 -45 40 -72 27 -113 -12 -35 -54 -64
-95 -64 -26 0 -55 38 -55 73 0 37 29 106 53 126 25 20 21 41 -9 41 -15 0 -37
-12 -54 -28z"/>
<path d="M12833 9688 c4 -29 11 -84 17 -122 20 -132 16 -204 -14 -278 -38 -92
-52 -102 -144 -106 -146 -6 -157 -20 -35 -47 43 -9 132 -35 197 -56 65 -21
123 -39 129 -39 5 0 -2 12 -17 26 -26 26 -26 29 -26 163 0 75 4 163 9 196 15
99 22 245 13 245 -5 0 -15 -20 -22 -45 -7 -25 -16 -48 -21 -51 -4 -2 -18 28
-30 68 -22 75 -34 98 -52 98 -6 0 -8 -20 -4 -52z"/>
<path d="M17966 14911 c-25 -27 -36 -77 -36 -156 0 -128 39 -253 107 -341 13
-17 21 -38 18 -45 -3 -8 6 -27 19 -44 30 -37 33 -35 132 99 134 179 179 307
141 398 -28 67 -88 59 -160 -22 l-37 -40 -10 27 c-26 71 -46 106 -71 124 -34
24 -81 25 -103 0z m97 -59 c19 -21 40 -87 58 -182 14 -76 24 -100 44 -100 10
0 13 16 14 59 0 66 26 129 63 155 28 20 57 20 64 1 8 -21 -39 -155 -80 -229
-35 -63 -105 -136 -129 -136 -16 0 -72 91 -98 161 -41 108 -15 287 42 289 3 0
13 -8 22 -18z"/>
<path d="M6797 13179 c-33 -17 -117 -116 -130 -151 -3 -9 -32 1 -96 32 -137
66 -202 60 -265 -24 -17 -23 -21 -42 -21 -109 1 -196 121 -377 355 -532 106
-71 261 -148 273 -136 10 10 54 207 72 327 23 147 30 327 16 410 -16 91 -60
170 -106 190 -44 18 -52 17 -98 -7z m-307 -196 c14 -9 82 -72 151 -140 140
-137 162 -147 178 -85 10 40 24 139 24 178 0 36 15 29 27 -13 35 -128 36 -315
1 -417 -34 -96 -35 -97 -79 -79 -70 28 -200 123 -260 188 -78 86 -133 195
-139 279 -7 76 6 106 45 106 15 0 39 -7 52 -17z"/>
<path d="M5387 12422 c-34 -21 -87 -99 -112 -166 -21 -55 -17 -57 -81 36 -68
97 -237 126 -320 55 -35 -31 -43 -104 -19 -179 43 -139 320 -416 490 -492 80
-36 118 -40 169 -18 34 15 48 30 67 68 23 46 24 59 23 219 -2 363 -90 556
-217 477z m-272 -253 c31 -8 66 -30 117 -75 76 -67 168 -120 192 -111 8 3 16
30 21 73 4 38 12 79 17 94 l11 25 9 -35 c16 -54 3 -266 -19 -324 -28 -75 -40
-78 -130 -31 -170 90 -323 248 -323 335 0 58 25 69 105 49z"/>
<path d="M6739 10660 c-67 -35 -125 -113 -196 -258 0 -2 -30 20 -65 48 -135
109 -163 124 -238 128 -57 4 -78 0 -123 -21 -149 -68 -229 -225 -197 -383 52
-257 366 -542 778 -708 91 -37 94 -37 114 -19 70 63 151 333 183 611 28 239
14 442 -37 535 -42 77 -143 107 -219 67z m-454 -262 c14 -6 93 -88 176 -182
83 -94 154 -172 159 -174 4 -1 10 48 12 110 6 131 24 183 74 228 61 53 109 34
145 -58 33 -86 31 -254 -5 -377 -29 -96 -90 -235 -123 -274 l-20 -24 -79 43
c-331 181 -564 409 -564 553 0 113 126 200 225 155z"/>
</g>
</svg>
